#Comment line ignore any data following # character 
#Hierarchical Translation and Rotation (.htr) file 
[Header]	
#Header keywords are followed by a single value 
FileType HTR		#Single word string
DataType HTRS		#Translation followed by rotation and scale data
FileVersion 1		#integer
NumSegments 84		#integer
NumFrames 2		#integer
DataFrameRate 30		#integer, data frame rate in this file
EulerRotationOrder ZYX
CalibrationUnits mm
RotationUnits Degrees
GlobalAxisofGravity Y
BoneLengthAxis Y
ScaleFactor 1.00
[SegmentNames&Hierarchy]
#CHILD	PARENT
MASTER GLOBAL
root MASTER
chest root
L_mid_tent01 root
R_mid_tent01 root
spine01 root
Bip01_Neck chest
L_humerus chest
R_humerus chest
weapon_bone chest
Bip01_Head Bip01_Neck
eye_left_bone Bip01_Head
eye_right_bone Bip01_Head
L_forearm L_humerus
L_front_hand L_forearm
L_weapon_bone L_forearm
L_front_hand01_01 L_front_hand
L_front_hand02_01 L_front_hand
L_front_hand03_01 L_front_hand
L_front_hand01_02 L_front_hand01_01
L_front_hand02_02 L_front_hand02_01
L_front_hand03_02 L_front_hand03_01
R_forearm R_humerus
R_front_hand R_forearm
R_weapon_bone R_forearm
R_front_hand01_01 R_front_hand
R_front_hand02_01 R_front_hand
R_front_hand03_01 R_front_hand
R_front_hand01_02 R_front_hand01_01
R_front_hand02_02 R_front_hand02_01
R_front_hand03_02 R_front_hand03_01
null_rope01_connect L_mid_tent01
Rope1_Seg01 null_rope01_connect
Rope1_Seg02 Rope1_Seg01
Rope1_Seg03 Rope1_Seg02
Rope1_Seg04 Rope1_Seg03
Rope1_Seg05 Rope1_Seg04
Rope1_Seg06 Rope1_Seg05
Rope1_Seg07 Rope1_Seg06
Rope1_Seg09 Rope1_Seg07
L_mid_hand01 Rope1_Seg09
L_mid_hand02 Rope1_Seg09
L_mid_hand03 Rope1_Seg09
null_rope02_connect R_mid_tent01
Rope2_Seg01 null_rope02_connect
Rope2_Seg02 Rope2_Seg01
Rope2_Seg03 Rope2_Seg02
Rope2_Seg04 Rope2_Seg03
Rope2_Seg05 Rope2_Seg04
Rope2_Seg06 Rope2_Seg05
Rope2_Seg07 Rope2_Seg06
Rope2_Seg09 Rope2_Seg07
R_mid_hand01 Rope2_Seg09
R_mid_hand02 Rope2_Seg09
R_mid_hand03 Rope2_Seg09
spine02 spine01
spine03 spine02
pelvis spine03
null_rope03_connect pelvis
null_rope04_connect pelvis
Rope3_Seg01 null_rope03_connect
Rope3_Seg02 Rope3_Seg01
Rope3_Seg03 Rope3_Seg02
Rope3_Seg04 Rope3_Seg03
Rope3_Seg05 Rope3_Seg04
Rope3_Seg06 Rope3_Seg05
Rope3_Seg07 Rope3_Seg06
Rope3_Seg08 Rope3_Seg07
Rope3_Seg09 Rope3_Seg08
R_rear_hand01 Rope3_Seg09
R_rear_hand02 Rope3_Seg09
R_rear_hand03 Rope3_Seg09
Rope4_Seg01 null_rope04_connect
Rope4_Seg02 Rope4_Seg01
Rope4_Seg03 Rope4_Seg02
Rope4_Seg04 Rope4_Seg03
Rope4_Seg05 Rope4_Seg04
Rope4_Seg06 Rope4_Seg05
Rope4_Seg07 Rope4_Seg06
Rope4_Seg08 Rope4_Seg07
Rope4_Seg09 Rope4_Seg08
L_rear_hand01 Rope4_Seg09
L_rear_hand02 Rope4_Seg09
L_rear_hand03 Rope4_Seg09
[BasePosition]
#SegmentName Tx, Ty, Tz, Rx, Ry, Rz, BoneLength
MASTER 0.000000 0.000000 0.000000 -90.000000 0.000000 0.000000 10.000000 
root 0.000000 0.000000 0.000000 0.000000 0.000000 0.000000 10.000000 
chest 0.000000 0.000000 0.000000 0.000000 0.000000 0.000000 10.000000 
L_mid_tent01 0.000000 0.000000 0.000000 0.000000 0.000000 0.000000 10.000000 
R_mid_tent01 0.000000 0.000000 0.000000 0.000000 0.000000 0.000000 10.000000 
spine01 0.000000 0.000000 0.000000 0.000000 0.000000 0.000000 10.000000 
Bip01_Neck 0.000000 0.000000 0.000000 0.000000 0.000000 0.000000 10.000000 
L_humerus 0.000000 0.000000 0.000000 0.000000 0.000000 0.000000 10.000000 
R_humerus 0.000000 0.000000 0.000000 0.000000 0.000000 0.000000 10.000000 
weapon_bone 0.000000 0.000000 0.000000 0.000000 0.000000 0.000000 10.000000 
Bip01_Head 0.000000 0.000000 0.000000 0.000000 0.000000 0.000000 10.000000 
eye_left_bone 0.000000 0.000000 0.000000 0.000000 0.000000 0.000000 10.000000 
eye_right_bone 0.000000 0.000000 0.000000 0.000000 0.000000 0.000000 10.000000 
L_forearm 0.000000 0.000000 0.000000 0.000000 0.000000 0.000000 10.000000 
L_front_hand 0.000000 0.000000 0.000000 0.000000 0.000000 0.000000 10.000000 
L_weapon_bone 0.000000 0.000000 0.000000 0.000000 0.000000 0.000000 10.000000 
L_front_hand01_01 0.000000 0.000000 0.000000 0.000000 0.000000 0.000000 10.000000 
L_front_hand02_01 0.000000 0.000000 0.000000 0.000000 0.000000 0.000000 10.000000 
L_front_hand03_01 0.000000 0.000000 0.000000 0.000000 0.000000 0.000000 10.000000 
L_front_hand01_02 0.000000 0.000000 0.000000 0.000000 0.000000 0.000000 10.000000 
L_front_hand02_02 0.000000 0.000000 0.000000 0.000000 0.000000 0.000000 10.000000 
L_front_hand03_02 0.000000 0.000000 0.000000 0.000000 0.000000 0.000000 10.000000 
R_forearm 0.000000 0.000000 0.000000 0.000000 0.000000 0.000000 10.000000 
R_front_hand 0.000000 0.000000 0.000000 0.000000 0.000000 0.000000 10.000000 
R_weapon_bone 0.000000 0.000000 0.000000 0.000000 0.000000 0.000000 10.000000 
R_front_hand01_01 0.000000 0.000000 0.000000 0.000000 0.000000 0.000000 10.000000 
R_front_hand02_01 0.000000 0.000000 0.000000 0.000000 0.000000 0.000000 10.000000 
R_front_hand03_01 0.000000 0.000000 0.000000 0.000000 0.000000 0.000000 10.000000 
R_front_hand01_02 0.000000 0.000000 0.000000 0.000000 0.000000 0.000000 10.000000 
R_front_hand02_02 0.000000 0.000000 0.000000 0.000000 0.000000 0.000000 10.000000 
R_front_hand03_02 0.000000 0.000000 0.000000 0.000000 0.000000 0.000000 10.000000 
null_rope01_connect 0.000000 0.000000 0.000000 0.000000 0.000000 0.000000 10.000000 
Rope1_Seg01 0.000000 0.000000 0.000000 0.000000 0.000000 0.000000 10.000000 
Rope1_Seg02 0.000000 0.000000 0.000000 0.000000 0.000000 0.000000 10.000000 
Rope1_Seg03 0.000000 0.000000 0.000000 0.000000 0.000000 0.000000 10.000000 
Rope1_Seg04 0.000000 0.000000 0.000000 0.000000 0.000000 0.000000 10.000000 
Rope1_Seg05 0.000000 0.000000 0.000000 0.000000 0.000000 0.000000 10.000000 
Rope1_Seg06 0.000000 0.000000 0.000000 0.000000 0.000000 0.000000 10.000000 
Rope1_Seg07 0.000000 0.000000 0.000000 0.000000 0.000000 0.000000 10.000000 
Rope1_Seg09 0.000000 0.000000 0.000000 0.000000 0.000000 0.000000 10.000000 
L_mid_hand01 0.000000 0.000000 0.000000 0.000000 0.000000 0.000000 10.000000 
L_mid_hand02 0.000000 0.000000 0.000000 0.000000 0.000000 0.000000 10.000000 
L_mid_hand03 0.000000 0.000000 0.000000 0.000000 0.000000 0.000000 10.000000 
null_rope02_connect 0.000000 0.000000 0.000000 0.000000 0.000000 0.000000 10.000000 
Rope2_Seg01 0.000000 0.000000 0.000000 0.000000 0.000000 0.000000 10.000000 
Rope2_Seg02 0.000000 0.000000 0.000000 0.000000 0.000000 0.000000 10.000000 
Rope2_Seg03 0.000000 0.000000 0.000000 0.000000 0.000000 0.000000 10.000000 
Rope2_Seg04 0.000000 0.000000 0.000000 0.000000 0.000000 0.000000 10.000000 
Rope2_Seg05 0.000000 0.000000 0.000000 0.000000 0.000000 0.000000 10.000000 
Rope2_Seg06 0.000000 0.000000 0.000000 0.000000 0.000000 0.000000 10.000000 
Rope2_Seg07 0.000000 0.000000 0.000000 0.000000 0.000000 0.000000 10.000000 
Rope2_Seg09 0.000000 0.000000 0.000000 0.000000 0.000000 0.000000 10.000000 
R_mid_hand01 0.000000 0.000000 0.000000 0.000000 0.000000 0.000000 10.000000 
R_mid_hand02 0.000000 0.000000 0.000000 0.000000 0.000000 0.000000 10.000000 
R_mid_hand03 0.000000 0.000000 0.000000 0.000000 0.000000 0.000000 10.000000 
spine02 0.000000 0.000000 0.000000 0.000000 0.000000 0.000000 10.000000 
spine03 0.000000 0.000000 0.000000 0.000000 0.000000 0.000000 10.000000 
pelvis 0.000000 0.000000 0.000000 0.000000 0.000000 0.000000 10.000000 
null_rope03_connect 0.000000 0.000000 0.000000 0.000000 0.000000 0.000000 10.000000 
null_rope04_connect 0.000000 0.000000 0.000000 0.000000 0.000000 0.000000 10.000000 
Rope3_Seg01 0.000000 0.000000 0.000000 0.000000 0.000000 0.000000 10.000000 
Rope3_Seg02 0.000000 0.000000 0.000000 0.000000 0.000000 0.000000 10.000000 
Rope3_Seg03 0.000000 0.000000 0.000000 0.000000 0.000000 0.000000 10.000000 
Rope3_Seg04 0.000000 0.000000 0.000000 0.000000 0.000000 0.000000 10.000000 
Rope3_Seg05 0.000000 0.000000 0.000000 0.000000 0.000000 0.000000 10.000000 
Rope3_Seg06 0.000000 0.000000 0.000000 0.000000 0.000000 0.000000 10.000000 
Rope3_Seg07 0.000000 0.000000 0.000000 0.000000 0.000000 0.000000 10.000000 
Rope3_Seg08 0.000000 0.000000 0.000000 0.000000 0.000000 0.000000 10.000000 
Rope3_Seg09 0.000000 0.000000 0.000000 0.000000 0.000000 0.000000 10.000000 
R_rear_hand01 0.000000 0.000000 0.000000 0.000000 0.000000 0.000000 10.000000 
R_rear_hand02 0.000000 0.000000 0.000000 0.000000 0.000000 0.000000 10.000000 
R_rear_hand03 0.000000 0.000000 0.000000 0.000000 0.000000 0.000000 10.000000 
Rope4_Seg01 0.000000 0.000000 0.000000 0.000000 0.000000 0.000000 10.000000 
Rope4_Seg02 0.000000 0.000000 0.000000 0.000000 0.000000 0.000000 10.000000 
Rope4_Seg03 0.000000 0.000000 0.000000 0.000000 0.000000 0.000000 10.000000 
Rope4_Seg04 0.000000 0.000000 0.000000 0.000000 0.000000 0.000000 10.000000 
Rope4_Seg05 0.000000 0.000000 0.000000 0.000000 0.000000 0.000000 10.000000 
Rope4_Seg06 0.000000 0.000000 0.000000 0.000000 0.000000 0.000000 10.000000 
Rope4_Seg07 0.000000 0.000000 0.000000 0.000000 0.000000 0.000000 10.000000 
Rope4_Seg08 0.000000 0.000000 0.000000 0.000000 0.000000 0.000000 10.000000 
Rope4_Seg09 0.000000 0.000000 0.000000 0.000000 0.000000 0.000000 10.000000 
L_rear_hand01 0.000000 0.000000 0.000000 0.000000 0.000000 0.000000 10.000000 
L_rear_hand02 0.000000 0.000000 0.000000 0.000000 0.000000 0.000000 10.000000 
L_rear_hand03 0.000000 0.000000 0.000000 0.000000 0.000000 0.000000 10.000000 
#Beginning of Data. Separated by tabs
#Fr	Tx	Ty	Tz	Rx	Ry	Rz	SF
[MASTER]
7 0.000000 0.000000 0.000000 0.001660 0.001660 0.001660 0.000000
8 0.000000 0.000000 0.000000 0.001660 0.001660 0.001660 0.000000
[root]
7 -16.892260 -171.865570 1115.147827 -86.487816 -51.278648 -91.521507 1128.440430
8 -17.059057 -163.133423 1122.223999 -86.715881 -50.180828 -91.357330 1134.147339
[chest]
7 -84.512650 -34.090519 0.000000 2.411006 -1.762078 -121.445465 91.129311
8 -84.512650 -34.090519 0.000000 2.398243 -1.805260 -121.468636 91.129311
[L_mid_tent01]
7 27.384130 22.129017 -250.460953 -18.864025 -2.878057 110.543907 252.923447
8 27.398224 22.120932 -250.551437 -19.096439 -3.904544 106.787575 253.013885
[R_mid_tent01]
7 23.228794 24.509907 226.238495 -172.852432 3.491268 102.466202 228.744751
8 23.228794 24.509907 226.238495 -172.426819 3.898629 99.309479 228.744751
[spine01]
7 -0.361383 -0.195265 0.000000 0.001947 0.001311 22.075363 0.410763
8 -0.361383 -0.195265 0.000000 0.001947 0.001312 22.051847 0.410763
[Bip01_Neck]
7 165.484543 71.581718 0.000119 175.896118 1.177290 24.871183 180.302734
8 165.484543 71.581718 0.000119 175.896118 1.177290 24.871181 180.302734
[L_humerus]
7 -13.983130 -135.272980 -120.471481 -89.078041 1.063680 -177.273727 181.680161
8 -13.983130 -135.272980 -120.471481 -89.675713 0.988953 -178.042130 181.680161
[R_humerus]
7 -13.983309 -135.273102 125.287651 103.000740 1.729733 -169.272232 184.909012
8 -13.983309 -135.273102 125.287651 103.000740 1.729733 -169.272232 184.909012
[weapon_bone]
7 235.964890 -300.705902 0.000000 0.000000 -89.951546 -128.212341 382.234833
8 235.964890 -300.705902 0.000000 0.000000 -89.951546 -128.212341 382.234833
[Bip01_Head]
7 102.819809 23.735464 5.410364 3.150732 3.423701 -20.839092 105.662468
8 102.819809 23.735470 5.410359 3.150732 3.423702 -20.839094 105.662476
[eye_left_bone]
7 -24.626970 125.451866 -64.772606 0.000000 -90.000000 -99.840431 143.318359
8 -24.626970 125.451866 -64.772606 0.000000 -90.000000 -99.840431 143.318359
[eye_right_bone]
7 -24.626970 125.451866 64.327362 0.000000 -89.972023 80.159386 143.117676
8 -24.626970 125.451866 64.327362 0.000000 -89.960434 80.159386 143.117676
[L_forearm]
7 322.776093 0.000000 -0.000119 0.000016 0.002347 -89.240128 322.776093
8 322.776093 0.000000 -0.000119 0.000017 0.002347 -89.163719 322.776093
[L_front_hand]
7 241.149185 -0.042021 -3.300071 -177.734177 -0.118543 -78.475212 241.171753
8 241.149185 -0.042021 -3.300071 -177.735245 -0.131928 -78.150146 241.171753
[L_weapon_bone]
7 156.183838 0.000000 0.000000 0.001923 0.001349 19.912788 156.183838
8 156.183838 0.000000 0.000000 0.001978 0.001264 24.845156 156.183838
[L_front_hand01_01]
7 86.095154 20.947098 -0.655860 0.405585 -0.442306 -4.620490 88.609184
8 86.095154 20.947098 -0.655860 0.405585 -0.442306 -4.620490 88.609184
[L_front_hand02_01]
7 86.935165 -11.437475 24.513514 116.959450 3.630817 1.495453 91.046425
8 86.935165 -11.437475 24.513514 116.959450 3.630818 1.495453 91.046425
[L_front_hand03_01]
7 86.637497 -14.123976 -20.424902 -118.420097 -4.656303 -0.152527 90.126129
8 86.637497 -14.123976 -20.424902 -118.420097 -4.656303 -0.152527 90.126129
[L_front_hand01_02]
7 71.020905 -0.000179 0.000030 0.001534 0.001777 -8.378851 71.020905
8 71.020905 -0.000179 0.000030 0.001534 0.001777 -8.378850 71.020905
[L_front_hand02_02]
7 71.020927 -0.000119 0.000060 0.001534 0.001777 -8.378851 71.020927
8 71.020927 -0.000119 0.000060 0.001534 0.001777 -8.378850 71.020927
[L_front_hand03_02]
7 71.020905 -0.000060 0.000060 0.001534 0.001777 -8.378851 71.020905
8 71.020905 -0.000060 0.000060 0.001534 0.001777 -8.378850 71.020905
[R_forearm]
7 322.776428 -0.000060 0.000030 0.213075 -0.013185 -87.290268 322.776428
8 322.776428 -0.000060 0.000030 0.213211 -0.010756 -88.595940 322.776428
[R_front_hand]
7 238.847015 -0.006795 2.210259 -1.685259 -0.373764 -91.233925 238.857239
8 238.847015 -0.006795 2.210259 -1.688444 -0.361187 -90.814056 238.857239
[R_weapon_bone]
7 155.664093 0.002503 -0.000030 0.003185 0.001854 -114.023643 155.664078
8 155.664093 0.002503 -0.000030 0.003085 0.002008 -119.727615 155.664078
[R_front_hand01_01]
7 87.624611 14.231146 22.918642 -116.960205 3.496675 -1.324138 91.683487
8 87.624611 14.231146 22.918642 -116.960205 3.496675 -1.324138 91.683487
[R_front_hand02_01]
7 89.356956 14.367283 -19.491137 118.419647 -4.257089 0.609827 92.579636
8 89.356956 14.367283 -19.491137 118.419632 -4.257089 0.609828 92.579636
[R_front_hand03_01]
7 87.286232 -22.307278 -0.143439 -0.387970 -0.231462 4.232001 90.091743
8 87.286232 -22.307278 -0.143439 -0.387970 -0.231462 4.232001 90.091743
[R_front_hand01_02]
7 71.020905 0.000060 0.000119 0.001777 0.001534 8.377220 71.020905
8 71.020905 0.000060 0.000119 0.001777 0.001534 8.377220 71.020905
[R_front_hand02_02]
7 71.020844 -0.000030 -0.000119 0.001777 0.001534 8.377220 71.020836
8 71.020844 -0.000030 -0.000119 0.001777 0.001534 8.377220 71.020836
[R_front_hand03_02]
7 71.020905 0.000000 0.000030 0.001777 0.001534 8.377220 71.020905
8 71.020905 0.000000 0.000030 0.001777 0.001534 8.377220 71.020905
[null_rope01_connect]
7 328.732483 0.000000 -0.000238 105.341934 -70.481964 -73.683327 328.732483
8 328.732483 0.000000 -0.000238 105.677429 -70.098938 -71.192436 328.732483
[Rope1_Seg01]
7 0.000000 0.000000 0.000000 116.249641 23.789192 151.688599 0.000000
8 0.000000 0.000000 0.000000 119.682877 24.077085 162.265610 0.000000
[Rope1_Seg02]
7 139.999863 -0.000179 0.000000 -22.486092 -36.757359 70.678352 139.999863
8 139.999863 -0.000179 0.000000 -24.208735 -36.935196 68.899193 139.999863
[Rope1_Seg03]
7 139.999924 0.000060 -0.000060 29.412117 -1.008402 14.767477 139.999924
8 139.999924 0.000060 -0.000060 10.964369 -8.997561 17.111183 139.999924
[Rope1_Seg04]
7 139.999924 -0.000060 -0.000119 71.881599 28.547224 29.302631 139.999924
8 139.999924 -0.000060 -0.000119 81.515549 18.755499 33.871922 139.999924
[Rope1_Seg05]
7 139.999832 0.000119 -0.000060 5.534306 23.529726 -9.308028 139.999832
8 139.999832 0.000119 -0.000060 8.944032 26.608183 -8.413733 139.999832
[Rope1_Seg06]
7 139.999954 0.000119 -0.000060 0.913698 9.500643 -4.802400 139.999954
8 139.999954 0.000119 -0.000060 1.396828 9.820785 -4.575834 139.999954
[Rope1_Seg07]
7 139.999985 0.000060 0.000000 0.273535 4.634083 -2.457386 139.999985
8 139.999985 0.000060 0.000000 0.469660 5.044671 -2.527376 139.999985
[Rope1_Seg09]
7 121.602913 0.000119 -0.000089 -89.793175 -1.359789 0.847147 121.602913
8 121.602913 0.000119 -0.000089 -89.793175 -1.359789 0.847147 121.602913
[L_mid_hand01]
7 103.859421 1.038730 8.195221 104.352036 0.341479 -0.444583 104.187431
8 103.859421 1.038730 8.195221 104.352043 0.341479 -0.444583 104.187431
[L_mid_hand02]
7 105.572853 -4.139662 -10.864139 -135.608444 3.905687 -3.381056 106.211075
8 105.572853 -4.139662 -10.864139 -135.608444 3.905687 -3.381056 106.211075
[L_mid_hand03]
7 104.641464 17.579376 -3.913581 -18.761520 -0.324361 2.942913 106.179977
8 104.641464 17.579376 -3.913581 -18.761515 -0.324361 2.942912 106.179977
[null_rope02_connect]
7 328.732849 0.000179 -0.000119 121.226448 82.356583 -97.668251 328.732849
8 328.732849 0.000179 -0.000119 120.102486 81.781761 -100.876686 328.732849
[Rope2_Seg01]
7 0.000076 0.000110 0.000153 -48.261662 44.394409 53.186718 0.000203
8 0.000076 0.000110 0.000153 -54.849991 41.253948 41.819595 0.000203
[Rope2_Seg02]
7 139.999741 -0.000060 -0.000119 5.674614 -52.084045 -29.482286 139.999756
8 139.999741 -0.000060 -0.000119 6.935828 -49.752247 -20.286068 139.999756
[Rope2_Seg03]
7 140.000107 0.000030 0.000000 -17.056080 -24.817175 -17.789711 140.000107
8 140.000107 0.000030 0.000000 -15.115029 -30.233877 -14.630714 140.000107
[Rope2_Seg04]
7 139.999802 0.000000 -0.000060 -23.528090 -13.183332 -35.556961 139.999802
8 139.999802 0.000000 -0.000060 -25.197266 -15.050803 -35.950268 139.999802
[Rope2_Seg05]
7 139.999985 -0.000060 0.000119 -8.245167 1.463495 -19.672434 139.999985
8 139.999985 -0.000060 0.000119 -8.619429 1.013354 -18.963085 139.999985
[Rope2_Seg06]
7 139.999893 -0.000030 -0.000119 -2.349428 1.795969 -8.522648 139.999893
8 139.999893 -0.000030 -0.000119 -2.563983 1.560148 -8.133917 139.999893
[Rope2_Seg07]
7 139.999893 0.000060 -0.000060 -0.540096 0.598897 -2.380264 139.999893
8 139.999893 0.000060 -0.000060 -0.612663 0.543495 -2.281412 139.999893
[Rope2_Seg09]
7 121.338966 0.000089 -0.000060 33.793236 -1.359788 -0.847141 121.338966
8 121.338966 0.000089 -0.000060 33.793236 -1.359788 -0.847141 121.338966
[R_mid_hand01]
7 104.680779 11.144459 -10.335981 -47.384266 2.963522 5.452605 105.778534
8 104.680779 11.144459 -10.335981 -47.384243 2.963521 5.452602 105.778534
[R_mid_hand02]
7 104.070427 2.443552 8.231699 75.626297 -2.250001 1.111093 104.424065
8 104.070427 2.443552 8.231699 75.626297 -2.250001 1.111093 104.424065
[R_mid_hand03]
7 106.028137 -11.221827 -5.996406 -164.381927 2.495984 -6.140522 106.788818
8 106.028137 -11.221827 -5.996406 -164.381927 2.495984 -6.140520 106.788818
[spine02]
7 129.756927 0.001550 0.000119 -3.088764 -3.230238 38.976353 129.756927
8 129.756927 0.001550 0.000119 -2.968108 -3.296971 36.824013 129.756927
[spine03]
7 79.083931 0.005463 -0.309683 4.998987 7.522640 47.626282 79.084541
8 79.078651 0.006373 -0.361296 4.857510 7.283523 46.338768 79.079475
[pelvis]
7 169.435242 0.051022 0.000000 -7.100769 -2.872286 13.753485 169.435257
8 169.435242 0.051022 0.000000 -7.041874 -2.868085 13.646471 169.435257
[null_rope03_connect]
7 -1.257226 -2.466202 137.391083 129.607437 -84.424309 -110.133118 137.418976
8 -1.257226 -2.466202 137.391083 128.595276 -84.491600 -106.655006 137.418976
[null_rope04_connect]
7 -1.259640 -2.480268 -137.844437 129.607437 -84.424309 -110.133118 137.872513
8 -1.259640 -2.480268 -137.844437 128.595276 -84.491600 -106.655006 137.872513
[Rope3_Seg01]
7 0.000043 0.000135 0.000000 -172.062271 72.151428 -108.877937 0.000142
8 0.000043 0.000132 0.000000 -169.052917 70.511833 -106.571915 0.000139
[Rope3_Seg02]
7 139.999924 -0.000119 0.000060 -10.780734 -17.991905 11.017076 139.999924
8 139.999924 -0.000119 0.000060 -10.764730 -17.557734 11.214135 139.999924
[Rope3_Seg03]
7 139.999924 -0.000119 0.000119 -22.433090 -45.648258 23.621456 139.999924
8 139.999924 -0.000119 0.000119 -24.188995 -46.224422 25.423944 139.999924
[Rope3_Seg04]
7 139.999924 0.000119 0.000000 -0.985495 -25.218954 4.297776 139.999924
8 139.999924 0.000119 0.000000 -1.230860 -26.093071 4.593250 139.999924
[Rope3_Seg05]
7 139.999924 -0.000238 0.000060 7.272710 -61.023567 17.280045 139.999924
8 139.999924 -0.000238 0.000060 5.413298 -62.884350 20.328426 139.999924
[Rope3_Seg06]
7 139.999893 -0.000119 -0.000060 11.075517 -40.105656 25.239943 139.999893
8 139.999893 -0.000119 -0.000060 10.436640 -36.885208 23.527674 139.999893
[Rope3_Seg07]
7 139.999771 0.000060 -0.000119 2.968744 -5.337016 5.799263 139.999771
8 139.999771 0.000060 -0.000119 2.858035 -5.234001 5.504138 139.999771
[Rope3_Seg08]
7 139.999985 -0.000060 0.000000 1.506194 -2.039611 2.478176 139.999985
8 139.999985 -0.000060 0.000000 1.480689 -2.042662 2.377153 139.999985
[Rope3_Seg09]
7 90.185997 -0.000179 -0.000060 89.793228 -1.359877 -0.847183 90.185997
8 90.185997 -0.000179 -0.000060 89.793228 -1.359877 -0.847183 90.185997
[R_rear_hand01]
7 103.366196 -6.073594 -10.757982 -156.049316 6.070419 -2.795869 104.101845
8 103.366196 -6.073594 -10.757982 -156.049316 6.070419 -2.795869 104.101845
[R_rear_hand02]
7 100.509819 12.039542 -7.992327 -38.708427 1.958051 5.461186 101.543350
8 100.509819 12.039542 -7.992327 -38.708431 1.958051 5.461185 101.543350
[R_rear_hand03]
7 101.539970 5.215704 5.435467 84.307632 -2.361033 4.099039 101.819031
8 101.539970 5.215704 5.435467 84.307625 -2.361032 4.099037 101.819031
[Rope4_Seg01]
7 0.000000 0.000054 -0.000135 78.723076 76.998421 -82.291367 0.000145
8 0.000000 0.000051 -0.000132 79.697319 75.965103 -80.942909 0.000141
[Rope4_Seg02]
7 139.999985 0.000060 0.000119 4.628764 5.466079 -14.370506 139.999985
8 139.999985 0.000060 0.000119 4.552844 5.098309 -13.407768 139.999985
[Rope4_Seg03]
7 139.999924 0.000000 -0.000238 4.204843 11.908308 -48.066437 139.999924
8 139.999924 0.000000 -0.000238 4.809801 11.885687 -47.811859 139.999924
[Rope4_Seg04]
7 139.999985 0.000000 0.000119 -2.561631 3.567081 -34.216385 139.999985
8 139.999985 0.000000 0.000119 -2.717142 3.447929 -36.717209 139.999985
[Rope4_Seg05]
7 139.999802 -0.000060 -0.000119 -13.193891 5.075646 -43.299480 139.999802
8 139.999802 -0.000060 -0.000119 -14.402431 5.300882 -44.947865 139.999802
[Rope4_Seg06]
7 139.999924 0.000000 0.000060 -29.822878 15.672044 -56.886627 139.999924
8 139.999924 0.000000 0.000060 -28.580761 16.112320 -53.772522 139.999924
[Rope4_Seg07]
7 139.999802 0.000000 0.000000 -3.574721 7.362223 -8.898829 139.999802
8 139.999802 0.000000 0.000000 -3.417603 7.114540 -8.541716 139.999802
[Rope4_Seg08]
7 139.999924 0.000000 0.000119 -2.511489 2.878374 -3.105093 139.999924
8 139.999924 0.000000 0.000119 -2.494161 2.835356 -3.054182 139.999924
[Rope4_Seg09]
7 90.185791 0.000060 0.000060 -135.617828 2.228885 0.850567 90.185791
8 90.185791 0.000060 0.000060 -135.617828 2.228885 0.850567 90.185791
[L_rear_hand01]
7 101.696655 -8.392275 -7.654577 -38.746342 0.246096 177.290207 102.329041
8 101.696655 -8.392275 -7.654577 -38.746338 0.246096 177.290207 102.329041
[L_rear_hand02]
7 102.726799 -1.568258 5.773216 84.315163 -1.142796 176.247437 102.900848
8 102.726799 -1.568258 5.773216 84.315163 -1.142796 176.247437 102.900848
[L_rear_hand03]
7 104.552910 9.721220 -10.420293 -155.747955 -4.630845 179.564758 105.519653
8 104.552910 9.721220 -10.420293 -155.747955 -4.630845 179.564758 105.519653
